<?xml version="1.0" encoding="utf-8"?>
<!DOCTYPE svg PUBLIC "-//W3C//DTD SVG 1.0//EN" "http://www.w3.org/TR/2001/REC-SVG-20010904/DTD/svg10.dtd">
<svg version="1.0" xmlns="http://www.w3.org/2000/svg" width="3072px" height="591px" viewBox="0 0 3072 591" preserveAspectRatio="xMidYMid meet">
 <g fill="#000000">
  <path d="M1859.10 523.20 c-1.20 -1.20 -2.10 -11.10 -2.10 -22.20 0 -19.80 8.10 -50.10 19.20 -71.70 6.30 -11.70 4.80 -14.70 -2.70 -6.30 -4.20 4.50 -9.30 6 -21 6 -16.80 0 -19.50 -2.40 -19.50 -17.10 0 -6.60 -1.20 -6 -11.40 7.20 -18.90 23.70 -48.60 48.60 -72.30 60.30 -20.10 9.90 -24.90 11.10 -51.60 12 -25.80 1.20 -31.20 0.60 -43.20 -5.40 -17.70 -8.40 -25.50 -21 -25.50 -39.60 l0 -14.40 -19.20 0 c-21 0 -53.10 -8.70 -64.50 -17.70 l-7.20 -5.40 -27.30 17.70 c-95.70 61.80 -190.50 86.10 -239.70 61.20 -27.60 -13.80 -31.50 -57 -7.50 -79.20 6.30 -5.70 10.20 -6.90 23.70 -6 l16.20 0.90 0.90 15.90 0.90 15.60 -12 0 c-9 0 -12.90 1.50 -15.30 6.30 -5.10 9 2.70 18.90 19.80 25.50 12.30 4.50 16.50 4.80 34.80 1.80 11.40 -2.10 29.10 -6.30 39.30 -9.90 24.30 -8.10 80.40 -36.30 115.50 -57.90 24.30 -15 27.90 -18.30 26.40 -24 -1.20 -3.30 -2.70 -13.50 -3.90 -21.90 -1.80 -15.60 -1.80 -15.90 -11.70 -15.90 -5.40 0 -10.80 -1.20 -11.70 -3 -1.20 -1.80 -5.10 -1.20 -10.50 1.50 -4.80 2.40 -16.20 4.50 -25.20 4.50 -13.50 0 -17.40 -1.20 -20.40 -6 -5.10 -7.80 -7.50 -7.50 -9.60 1.50 -1.20 4.20 -6.90 12.90 -12.60 19.50 -9.90 10.80 -12.30 12 -25.80 12 -12.30 0 -15.30 -0.90 -16.50 -5.70 -0.90 -3.60 -4.50 -6.30 -9.30 -6.90 -5.70 -0.60 -8.40 -3 -9.60 -8.40 -1.50 -7.50 -2.10 -7.50 -29.40 -7.50 -15 0 -27.60 0.90 -27.60 1.80 0 1.20 -14.10 2.40 -31.20 3.30 -27 1.20 -33.60 2.70 -48.90 10.20 -13.80 6.90 -18 10.80 -20.40 18.60 -2.40 9 -3.60 9.60 -15.60 9.60 l-12.90 0 0 -14.70 c0 -13.80 0.90 -15.60 12.60 -25.50 6.90 -6 13.80 -10.80 15.60 -11.10 1.80 -0.30 0 -1.20 -4.20 -2.40 -10.80 -3 -15 -13.80 -15 -39.30 0 -26.40 5.10 -47.70 19.20 -81.90 5.70 -13.50 9.60 -25.20 9 -25.80 -1.20 -1.20 -60.30 -8.70 -71.70 -9 -4.20 -0.30 -9 4.80 -16.20 16.80 -12.90 21.60 -50.40 60.60 -74.10 77.70 -22.50 16.20 -63 35.70 -86.10 41.40 -26.70 6.90 -83.10 6.30 -105.90 -1.20 -20.10 -6.60 -35.70 -19.80 -42 -35.10 -5.40 -12.60 -5.40 -44.10 0 -54.60 12 -22.80 51.90 -46.20 100.80 -58.50 41.40 -10.50 75.30 -13.80 140.10 -13.80 34.50 0 58.20 -1.20 59.40 -3 0.90 -1.50 2.70 -8.70 3.90 -15.60 l2.40 -12.90 13.20 0 13.50 0 0 16.80 0 16.80 39.30 4.20 39.30 4.20 10.80 -17.10 c10.50 -17.10 11.10 -17.40 24.60 -17.40 l13.50 0 0 12 c0 6.90 -2.10 15.60 -4.80 19.50 l-4.80 7.50 12.90 0 c11.70 0 14.10 -1.20 20.40 -10.50 3.90 -5.70 12.90 -15.90 20.10 -22.50 12 -11.10 14.40 -12 29.40 -12 13.20 0 17.10 1.20 19.80 5.70 4.20 8.40 3.60 22.80 -1.50 35.40 l-4.50 10.80 41.10 -1.80 c22.80 -0.90 53.10 -3.30 67.20 -5.40 l26.10 -3.30 1.80 -14.40 c4.80 -36.30 47.40 -72.60 90 -77.10 34.80 -3.60 49.80 4.80 49.80 27.90 0 27.60 -15 45 -55.20 64.50 -13.20 6.60 -25.80 11.70 -27.60 11.70 -2.40 0 -4.20 5.70 -4.80 15.60 -0.60 12.60 -2.10 16.20 -6.30 16.80 -10.50 2.10 -25.80 -2.70 -35.10 -10.20 l-9 -7.80 -35.70 3.30 c-19.80 1.80 -54 3.30 -75.90 3.30 l-40.20 0 -9 9.30 c-4.80 5.40 -16.20 15 -25.20 21.90 -11.40 8.40 -16.20 14.10 -15.60 17.70 1.80 8.40 6.60 4.80 24.30 -16.80 15.60 -19.80 16.50 -20.10 30.30 -20.10 7.50 0 15 0.90 16.20 2.10 1.20 1.20 8.10 1.80 15.30 1.20 l13.50 -0.90 0 11.70 c0 9.60 -1.80 12.90 -11.10 20.40 -20.70 16.80 -26.10 19.50 -40.20 19.50 -9 0 -15.30 1.80 -18 4.80 -7.50 9 -21 13.80 -36.90 12.60 -13.20 -0.90 -16.20 0 -20.70 5.70 -3.30 4.20 -8.70 6.90 -13.80 6.90 -5.70 0 -9.60 2.40 -13.50 9.30 -3 5.10 -9.60 14.10 -15 20.10 -5.10 6 -7.50 9.90 -5.40 8.40 1.80 -1.20 29.40 -3.30 60.90 -4.80 53.40 -2.40 58.20 -3 73.80 -10.50 13.20 -6.60 18.90 -7.80 29.70 -6.30 12.60 1.50 13.20 1.20 13.20 -5.70 0 -6 -1.80 -7.20 -9.60 -8.10 -9.30 -0.90 -9.90 -1.50 -10.80 -14.70 -0.60 -10.20 0.60 -15.60 5.40 -21.60 12 -15.30 21.60 -18 73.50 -20.40 26.40 -1.20 59.10 -3.90 72.60 -5.70 l24.60 -3.60 17.40 -21.30 c9.90 -12 25.50 -27 35.10 -33.60 16.20 -11.10 18.90 -12 38.40 -12 18 0 21.60 0.90 26.40 6.60 l5.10 6.60 9.60 -13.20 c15.60 -21.60 27.30 -29.10 44.40 -27.90 13.50 0.90 14.40 1.50 15.30 9.90 0.60 4.80 -0.30 13.80 -2.10 19.80 -5.40 17.40 -35.70 61.50 -65.10 93.60 -27.60 30.60 -35.10 40.80 -38.70 52.20 -1.80 6.60 -1.20 6.60 18.60 -2.70 20.40 -9.30 58.80 -42.60 62.70 -54 0.90 -3 3.60 -5.40 6 -5.40 2.40 0 4.20 -3 4.20 -7.80 0 -6.90 0.90 -7.50 12.90 -6.60 12 0.90 12.60 1.50 13.50 10.80 0.60 5.40 -0.60 12.30 -2.40 15 -2.10 2.70 1.80 -0.60 8.40 -7.50 12.60 -13.80 18 -15 44.10 -10.50 10.80 2.10 12 3.30 13.50 12.60 2.40 16.80 9.90 15 31.50 -7.20 13.20 -14.10 21.30 -19.80 26.40 -19.80 4.20 0 8.10 -2.10 9.30 -4.50 0.90 -3 5.70 -4.50 13.80 -4.50 l12 0 0 12 c0 12.90 -6.60 36.60 -21 75.90 l-8.40 23.10 17.10 0 c9.30 0 47.10 2.70 84.30 6 109.80 9.60 181.80 7.50 226.50 -6.30 26.10 -8.10 33.90 -14.70 35.10 -30.60 l0.90 -12.60 13.50 -0.90 c15.60 -1.20 21 3.90 21 20.10 0 34.50 -33.30 51.60 -116.70 60 -48.30 5.10 -152.40 2.70 -194.40 -4.20 -9.90 -1.80 -9.90 -1.80 -9.90 10.50 0 12 -1.50 14.40 -18 27 l-7.50 5.70 9.30 0.30 c7.80 0 9.90 -1.50 11.40 -7.50 1.50 -6.30 3.60 -7.50 13.80 -7.50 11.70 0 12 0.30 12 9.90 0 12 -4.50 17.10 -15.60 17.10 -5.10 0 -8.40 1.50 -8.40 4.20 0 2.70 -5.10 4.80 -15 6.30 -8.10 1.20 -15 3.60 -15.30 5.40 -0.30 2.10 0 8.70 0.30 15 0.60 15.30 -15.30 61.20 -23.70 68.10 -0.90 0.90 -3.30 4.20 -5.10 7.50 -2.40 4.20 -6.90 6.30 -16.50 6.90 -7.50 0.60 -14.40 0 -15.60 -1.20z m-129 -67.80 c26.70 -12.90 60.90 -45.60 82.50 -78.60 9.60 -14.70 17.10 -27.30 16.20 -27.90 -0.60 -0.60 -12.90 0.30 -27.30 2.10 l-26.10 3.30 -22.50 23.70 c-24.60 26.10 -51.90 42.60 -82.50 49.50 -18.60 3.90 -21.60 10.50 -11.10 23.70 15 19.20 37.80 20.70 70.80 4.20z m-94.50 -55.50 c24.90 -30.30 51.90 -48.60 91.50 -61.20 21.90 -6.90 26.40 -11.10 23.40 -20.70 -3 -9.60 -17.10 -12.90 -36 -8.70 -13.20 3 -21.60 7.50 -36.60 19.80 -25.50 21 -33.60 24.90 -50.40 24.90 -12.30 0 -17.40 2.10 -38.10 17.10 l-24.30 16.80 11.70 6.30 c10.20 5.10 37.20 12.90 48.60 13.50 1.80 0.30 6.60 -3.30 10.20 -7.80z m318.60 3.30 c6.60 -6.30 6 -9.30 -0.30 -3.60 -3 2.70 -7.50 5.40 -9.90 6.30 -3.60 1.20 -3.60 1.80 0.60 1.80 2.70 0.30 7.20 -1.80 9.60 -4.50z m-212.40 -28.80 l8.70 -9.90 -9.60 8.70 c-9.30 8.40 -11.40 10.80 -9 10.80 0.60 0 4.80 -4.50 9.90 -9.60z m171 -6.60 l15.90 -15.90 -31.80 -2.10 c-24.60 -1.50 -32.40 -1.20 -34.20 1.80 -1.80 3 0.30 4.20 8.70 4.80 12.60 0.90 18.60 7.20 18.60 19.20 0 4.50 1.50 8.40 3.30 8.40 1.80 0 10.50 -7.20 19.50 -16.20z m28.20 4.20 c2.40 -1.50 2.10 -2.70 -1.50 -3.90 -2.70 -1.20 -3.90 -0.90 -3 0.60 0.90 1.50 0.30 3.60 -1.50 4.80 -1.50 0.90 -3 3.60 -3 5.40 0 2.40 0.90 2.10 2.70 -0.60 1.50 -2.10 4.20 -5.10 6.30 -6.30z m-368.40 -26.10 c14.40 -9.60 26.40 -18.90 26.40 -21 0 -1.80 -5.10 -3.90 -11.10 -4.50 -10.50 -0.90 -11.40 -1.80 -12.30 -11.10 -2.70 -26.40 10.20 -48.30 27.90 -48.30 9.30 0 10.80 -1.50 18.60 -17.40 l9 -17.40 -24.30 8.70 c-13.50 4.80 -27.30 9.90 -30.90 11.40 -8.40 3 -29.40 45.30 -35.70 71.70 -3.90 15.90 -4.20 22.20 -1.50 32.40 2.10 6.90 4.50 12.60 5.40 12.60 1.20 0 13.80 -7.80 28.50 -17.10z m-277.20 -12 c-3 -0.60 -7.80 -0.60 -10.50 0 -3 0.90 -0.60 1.50 5.10 1.50 5.70 0 8.10 -0.60 5.40 -1.50z m547.20 -12.60 c1.50 -1.20 6.30 -13.20 11.40 -26.70 8.70 -23.70 8.40 -30.30 -0.30 -19.50 -11.70 13.80 -45.90 20.40 -59.10 11.10 -6.60 -4.50 -7.50 -4.50 -14.10 1.80 -5.70 5.40 -6.60 8.10 -4.20 14.10 1.50 3.90 2.70 11.10 2.70 15.90 l0 8.70 30.90 -1.80 c16.80 -0.90 31.50 -2.70 32.70 -3.60z m-378.90 -41.70 c15.90 0.90 16.80 1.50 18.30 9.30 l1.50 8.40 10.20 -10.50 c6.90 -7.20 13.20 -10.80 18.60 -10.80 6 0 9 -2.10 11.70 -9 2.10 -5.10 3.30 -9.90 2.40 -10.50 -0.90 -0.90 -25.20 -0.30 -54.30 1.20 -43.50 2.10 -54.30 3.60 -62.70 8.40 -13.80 8.10 -14.70 15.90 -1.80 15.90 12 0 15.90 2.40 18.90 11.70 2.10 6.90 2.10 6.90 11.10 -3.90 8.70 -10.50 9.60 -11.10 26.10 -10.20z m-512.70 3.90 c51.90 -18.90 103.80 -60.60 132.60 -106.20 l6.60 -10.20 -55.50 1.80 c-61.20 2.10 -96.60 7.20 -134.70 20.10 -30.60 10.20 -49.20 20.40 -64.20 34.80 -13.50 13.20 -17.10 21.30 -13.20 31.20 13.20 35.40 72.90 48.60 128.40 28.50z m270.90 -24.90 c23.70 -33.90 42 -67.50 39 -70.80 -1.20 -0.90 -7.20 -1.80 -13.20 -1.80 -10.80 0 -12 0.90 -19.50 15.60 -16.20 32.10 -35.70 89.40 -30.30 89.40 0.90 0 11.70 -14.40 24 -32.40z m-162.90 -25.80 c0 4.20 7.20 -4.50 7.80 -9.60 0.60 -3.60 -1.80 -2.40 -8.10 3.60 -9 8.70 -12 13.80 -4.20 7.20 2.40 -2.10 4.50 -2.70 4.50 -1.20z m486 -93.90 c23.40 -10.20 43.50 -24 49.80 -33 4.80 -7.50 4.80 -8.10 -0.30 -11.70 -9.90 -7.20 -35.40 3.30 -57.60 23.70 -11.70 10.80 -21.90 24.90 -21.90 30.60 0 2.70 10.50 -0.60 30 -9.60z"/>
 </g>
 <g fill="#ffffff">
  <path d="M0 295.50 l0 -295.50 1536 0 1536 0 0 295.50 0 295.50 -1536 0 -1536 0 0 -295.50z m1881.90 215.40 c14.70 -16.50 34.20 -72 30.60 -88.20 -1.80 -8.10 -1.20 -8.70 6.60 -8.70 12.60 0 35.40 -8.40 41.70 -15.30 6.60 -7.20 2.10 -7.50 -6 0 -13.20 11.70 -46.80 17.10 -46.80 7.50 0 -5.10 14.10 -19.80 27.90 -29.10 4.50 -3 8.10 -7.20 8.10 -9.60 0 -8.40 -9.90 -4.50 -22.50 9.30 -11.10 12.30 -14.40 14.10 -27.60 15.30 l-15 1.50 1.50 -9.30 c2.40 -16.20 -13.20 -25.50 -20.40 -12.30 -1.80 3.30 -2.40 6 -1.20 6 0.90 0 -1.80 4.20 -6 9.30 -13.80 16.50 -14.10 32.70 -0.60 32.70 5.10 0 10.50 -3.90 16.80 -11.70 8.40 -10.20 11.40 -12 23.70 -12.90 l14.10 -0.90 -14.40 28.50 c-16.50 32.10 -26.40 61.50 -26.40 77.70 0 16.20 6.60 20.40 15.90 10.20z m-531.90 -26.10 c45.30 -8.10 92.40 -29.10 153.60 -67.80 33.30 -21.30 33.90 -21.60 41.40 -16.50 22.50 14.70 40.80 20.70 66.60 21.90 l26.10 1.20 -0.30 13.20 c-0.30 16.50 8.10 30.60 23.40 39.60 10.20 6 15 6.60 35.70 5.70 21 -0.90 27 -2.40 46.50 -12.60 33.60 -17.40 71.40 -56.40 96 -98.70 l18.90 -32.40 28.80 1.80 c15.90 1.20 51.90 4.20 79.80 7.20 32.10 3 77.40 4.80 123 4.80 80.10 0 115.20 -5.10 147.60 -21 24 -11.70 34.80 -32.70 21.30 -41.40 -7.80 -4.80 -14.10 2.10 -9.30 9.90 9 14.40 -25.20 33.60 -72.90 40.80 -41.10 6.30 -120.90 5.70 -202.20 -1.50 -37.20 -3.30 -78 -6 -91.20 -6 -17.70 0 -23.10 -0.90 -21.90 -3.60 18.90 -45.30 37.50 -103.20 33.90 -106.50 -1.20 -1.50 -4.50 0.30 -7.20 3.60 -3 3.30 -7.80 5.70 -11.40 5.10 -4.20 -0.60 -9.60 2.70 -16.20 10.50 -30.30 35.10 -57 40.80 -57 11.70 0 -10.50 -9.60 -10.20 -17.70 0.60 l-6.30 8.10 1.80 -9.60 c2.70 -13.50 -4.50 -13.20 -15 0.60 -14.70 19.20 -40.80 34.50 -40.80 24 0 -2.70 2.40 -9 5.10 -13.80 3.60 -6.30 4.20 -9.60 1.80 -12 -2.40 -2.40 -4.20 -1.80 -7.20 1.80 -25.80 32.10 -41.10 44.70 -71.70 59.40 -17.40 8.40 -32.40 15.90 -33.60 16.50 -4.50 2.10 -2.40 -16.50 3.60 -33.60 4.50 -13.50 11.10 -22.80 31.80 -44.70 44.10 -46.80 78.60 -101.40 70.20 -111.60 -5.10 -6 -16.20 0 -31.50 16.80 -15.30 17.10 -55.80 79.50 -64.80 99.90 -6.60 15 -7.80 16.20 -15.60 14.70 -17.40 -3.60 -37.80 30 -24.90 40.80 3.30 2.70 6 1.80 12.60 -3.60 l8.70 -7.50 -0.30 17.70 -0.30 17.70 -31.20 20.40 c-17.10 11.10 -32.70 21.30 -34.80 22.50 -5.10 3.30 -12 -11.40 -14.70 -30.30 -2.70 -21.30 5.40 -54.60 20.70 -84.60 l12.60 -24.90 27 -9.30 c44.40 -15.30 67.50 -32.10 67.50 -48.60 0 -9.90 -12.30 -17.40 -25.20 -15 -14.40 2.70 -36 18 -52.20 37.20 -26.10 30.60 -24.60 29.40 -50.40 33 -12.90 1.80 -42.60 4.20 -65.70 5.40 -23.10 0.90 -47.40 3 -53.70 4.80 -21.30 5.40 -43.20 35.40 -25.80 35.40 4.50 0 6 -2.10 6 -7.20 0 -8.40 6.60 -15.90 17.70 -20.40 4.20 -1.80 29.40 -4.20 55.80 -5.40 26.40 -1.50 56.40 -3.60 66.90 -4.50 l18.60 -2.40 -10.50 22.20 c-9 19.20 -11.40 22.20 -17.70 21.30 -4.80 -0.60 -10.80 3 -20.10 11.70 -17.40 16.50 -38.10 29.70 -46.80 29.70 -10.80 0 -8.10 -9.30 5.40 -18.90 13.50 -9.30 17.40 -16.50 11.40 -20.40 -6.90 -4.20 -8.70 -3.30 -21.90 9.60 -15 15 -28.80 20.40 -28.80 11.40 0 -15 -10.50 -22.20 -18.30 -12.90 -3.30 3.90 -3 6.30 1.80 15.30 5.70 10.20 5.70 10.50 -0.90 23.10 -6.30 11.70 -18.60 23.10 -18.60 17.10 0 -1.50 2.70 -9 6 -16.80 8.40 -19.50 4.50 -22.50 -9 -7.20 -12.90 15 -17.10 14.70 -10.50 -1.20 2.40 -6 3.30 -11.40 1.80 -12.30 -1.50 -1.20 -9.30 1.50 -17.40 5.70 -13.20 6.90 -19.20 7.80 -72.90 10.20 -64.50 3 -84.30 7.80 -102 24.30 -9.60 9 -12.30 21 -4.50 21 2.40 0 4.50 -2.70 4.50 -5.70 0 -7.80 18.30 -23.10 32.10 -27.30 6.30 -1.80 36.30 -4.80 66.90 -6.30 30.60 -1.50 59.40 -4.20 64.20 -5.70 12.60 -4.20 13.20 -3.90 14.40 6.90 0.90 8.40 1.80 9.60 9.30 9 6 -0.30 8.10 0.90 8.10 4.80 0 3 1.80 7.20 4.20 9 6.60 5.70 18.60 -3.90 29.40 -22.80 5.70 -10.20 11.10 -15.90 14.40 -15.90 3 0 7.50 -0.90 10.20 -1.80 3.30 -1.20 4.80 -0.30 4.80 3 0 2.40 3.30 6.90 7.20 9.30 8.40 5.40 16.50 3.30 36.30 -10.50 l13.20 -9 0.90 8.10 c1.20 10.20 9.60 12.60 17.70 5.10 5.70 -5.10 5.70 -4.80 5.70 12.60 0.30 9.60 2.40 23.10 4.80 29.70 2.40 6.60 5.40 14.10 6 16.50 1.20 3.30 -8.70 10.80 -33.90 26.10 -108.90 65.70 -186 85.80 -218.40 57.30 -13.80 -12 -14.70 -28.50 -2.40 -40.80 5.10 -5.10 8.40 -6.60 9.30 -4.20 0.60 2.10 3.90 3.60 7.20 3.60 7.80 0 6.30 -12.90 -1.80 -14.40 -15.30 -3 -34.20 22.50 -30.60 41.70 2.40 14.10 16.20 26.70 33.90 31.50 18.60 4.80 30.30 4.80 57.90 0z m-143.70 -173.40 c4.80 -5.40 14.40 -18.30 21.30 -28.50 6.60 -10.50 12.60 -18.90 12.90 -18.90 0.60 0 0.30 2.40 -0.60 5.70 -3 11.10 4.80 9.30 15.90 -3.90 l11.10 -13.50 5.70 7.50 c3.30 3.90 9 7.20 12.60 7.20 6.90 0 24.60 -11.40 31.20 -20.10 2.70 -3.90 4.50 -4.20 7.20 -1.50 7.80 7.80 21.90 2.70 44.40 -16.80 17.10 -14.70 7.80 -14.10 -10.50 0.60 -15.60 12.90 -28.50 17.70 -28.50 11.10 0 -1.80 4.80 -6.60 10.50 -11.10 12.30 -9.30 13.50 -16.20 3.30 -16.20 -5.40 0 -11.10 4.80 -21.60 18 -17.10 21.90 -32.10 32.40 -38.70 27 -2.40 -2.10 -4.50 -5.40 -4.50 -7.20 0 -2.10 -1.50 -5.10 -3.60 -7.20 -2.70 -2.70 -5.10 -2.10 -10.50 3 l-6.90 6.60 3.30 -9.90 c2.40 -6.60 8.40 -12.90 20.40 -20.10 9.30 -6 23.70 -17.40 31.80 -25.20 l15 -14.40 63 -1.50 c34.80 -0.90 72.30 -3.30 83.70 -5.10 20.40 -3.60 20.70 -3.60 27.90 4.50 12.30 13.20 27.90 17.40 27.90 7.50 0 -4.20 -2.10 -6 -6.30 -6 -7.50 0 -17.70 -5.10 -17.70 -9 0 -1.50 7.80 -5.10 17.40 -7.80 43.20 -12.30 87.30 -42 92.10 -62.10 4.80 -19.20 -9.90 -30.90 -34.80 -28.20 -39 4.50 -80.10 41.40 -86.10 77.40 l-2.10 13.20 -24 3.60 c-29.70 4.50 -133.50 8.70 -133.50 5.40 0 -1.20 3.60 -9.60 7.80 -18.30 12 -24.30 5.10 -39.60 -13.20 -30 -8.10 4.20 -30.90 27 -39.60 39.90 -4.20 6 -5.70 6.30 -27.90 4.20 -12.90 -1.50 -24 -3.30 -25.20 -4.20 -0.90 -0.90 2.70 -7.50 7.80 -14.70 5.10 -6.90 9.30 -14.40 9.30 -16.80 0 -8.70 -10.80 -1.20 -21.90 15.60 -10.80 16.20 -12.30 17.40 -21 15.60 -5.40 -0.90 -26.70 -3.30 -47.70 -5.10 -21 -2.10 -39.60 -4.50 -41.40 -5.70 -2.40 -1.50 -1.80 -5.40 1.80 -12.90 5.10 -10.50 4.20 -20.10 -1.80 -20.10 -1.80 0 -3.60 1.80 -4.20 3.90 -0.60 1.80 -2.70 9.30 -4.50 16.50 l-3.60 12.60 -62.10 0 c-87 0 -139.50 8.70 -185.70 30.60 -36.60 17.10 -60.90 47.10 -55.20 67.20 5.10 17.70 12.90 28.80 26.10 37.20 34.50 21.90 92.40 21.30 144 -1.50 45 -19.80 98.70 -66 122.70 -104.70 14.10 -22.80 10.80 -22.20 72 -15.30 21.60 2.40 40.50 4.50 42.60 4.50 2.10 0 -1.20 10.20 -8.10 24.90 -24.60 52.50 -33.60 98.10 -22.80 114.60 6.60 9.90 12.30 9.60 23.10 -2.10z m533.70 -68.10 c0 -4.20 -5.40 -6.90 -9 -4.80 -1.80 1.20 -2.40 3.30 -1.50 4.80 2.40 3.60 10.50 3.60 10.50 0z"/>
  <path d="M1871.10 510.90 c-1.20 -0.90 -2.10 -5.10 -2.10 -9 0 -16.80 30.30 -90 36 -86.40 9 5.70 -1.50 52.80 -18 81.90 -9 15.30 -12 17.70 -15.90 13.50z"/>
  <path d="M1849.50 413.70 c-2.70 -3.90 10.80 -23.70 15.90 -23.70 2.10 0 4.50 2.10 5.70 4.50 3 8.10 -17.40 26.10 -21.60 19.20z"/>
  <path d="M1866.60 386.40 c-4.80 -4.80 -4.50 -17.40 0.60 -17.40 5.70 0 11.40 7.80 10.20 13.80 -1.20 6.60 -6 8.40 -10.80 3.60z"/>
  <path d="M1929 375 c0 -1.50 3 -4.50 6.90 -6.30 6.60 -3.60 6.60 -3.60 0.90 3 -6.30 6.90 -7.80 7.80 -7.80 3.30z"/>
  <path d="M1664.40 471 c-13.50 -7.20 -20.40 -19.50 -20.40 -35.70 0 -10.80 0.90 -12.30 8.40 -13.80 38.40 -8.40 79.20 -32.70 99.60 -59.70 13.50 -17.70 12 -17.40 67.20 -21.60 31.80 -2.40 31.50 -3.60 9 35.40 -21 35.70 -58.50 72.90 -88.80 87.90 -29.40 14.40 -57.30 17.10 -75 7.50z"/>
  <path d="M1612.50 415.20 c-3.30 -0.60 -12.90 -2.70 -21.30 -4.50 -15.30 -3 -43.20 -18 -43.20 -23.10 0 -1.50 15 -12.90 33.30 -25.50 27.90 -19.20 34.50 -22.50 39.30 -19.80 9.60 5.10 21.90 0 44.10 -18.60 16.20 -13.50 25.50 -18.90 38.40 -22.20 38.10 -9.90 57.90 -3 57.90 20.40 0 6.90 -1.20 14.10 -2.40 15.90 -1.20 1.80 -10.20 5.70 -20.10 8.70 -26.70 7.50 -57.90 24.90 -75.30 42 -8.40 8.10 -16.50 17.40 -18 20.10 -3 5.40 -21.60 9 -32.70 6.60z"/>
  <path d="M1653 408.30 c0 -6 33 -32.40 51.30 -41.10 23.10 -11.40 41.40 -17.40 44.10 -15 2.70 3 -20.10 25.50 -36.90 36.30 -23.40 15 -58.50 27 -58.50 19.80z"/>
  <path d="M1768.80 327.90 c2.40 -15.30 -4.20 -28.80 -16.80 -33.90 -6.30 -2.70 -16.20 -3.30 -32.40 -1.80 l-23.10 2.10 8.10 -8.10 c7.80 -7.80 8.40 -8.10 13.80 -3.30 8.10 7.20 15.90 6.30 29.70 -3.60 11.70 -8.40 12 -8.40 10.50 -1.80 -2.10 12 4.80 10.80 17.70 -3 13.20 -13.80 17.70 -16.50 17.70 -9.60 0 2.40 3.30 7.20 7.20 10.80 9.60 9 22.80 6.90 40.80 -6.30 9 -6.90 16.50 -9.90 24.30 -9.90 l10.80 0 -4.20 14.10 c-2.10 7.80 -8.10 24 -12.90 36 -5.10 12 -9 21.90 -9 22.20 0 0.30 -15.90 1.20 -35.10 2.10 -19.50 1.20 -38.40 3 -42.30 3.90 -6.30 1.80 -6.60 1.50 -4.80 -9.90z"/>
  <path d="M1626 334.50 c0 -1.50 34.50 -19.50 37.50 -19.50 2.70 0 -13.80 13.50 -21.60 17.70 -6.60 3.30 -15.90 4.50 -15.90 1.80z"/>
  <path d="M1503 319.20 c0 -3.60 9 -18.30 13.20 -21.90 3.90 -3.30 4.80 -3.30 4.80 0.90 0 6.30 -8.10 18.90 -13.80 21 -2.40 0.90 -4.20 0.90 -4.20 0z"/>
  <path d="M1406.10 307.80 c-1.20 -3 -1.50 -6.30 -0.60 -7.20 2.70 -2.70 5.10 1.80 3.90 7.50 -0.90 5.10 -1.20 5.10 -3.30 -0.30z"/>
  <path d="M1452 300 c1.80 -3.30 5.40 -6 8.10 -6 4.20 0 4.20 0.60 -0.60 6 -3 3.30 -6.60 6 -8.10 6 -1.50 0 -1.20 -2.70 0.60 -6z"/>
  <path d="M1593 302.70 c0 -6.60 15 -27 18.30 -25.20 5.10 3.30 2.70 9.30 -7.80 19.50 -6.60 6.30 -10.50 8.40 -10.50 5.70z"/>
  <path d="M1864.20 251.70 c-0.90 -1.80 0 -5.10 2.40 -7.50 3.90 -3.90 4.80 -3.90 8.10 0 2.10 2.40 3 6 1.80 7.80 -2.40 3.90 -9.60 3.90 -12.30 -0.30z"/>
  <path d="M1644 250.80 c0 -3.30 17.70 -32.70 39.30 -64.80 18.60 -27.90 35.70 -46.20 35.70 -38.40 0 5.70 -26.70 50.40 -39.90 66.60 -18 21.60 -34.80 39.30 -35.10 36.60z"/>
  <path d="M1572 226.20 c0 -4.20 23.40 -29.40 35.70 -38.40 15.60 -11.40 26.70 -15.30 36 -12.30 19.20 6 -11.10 31.50 -55.80 46.80 -8.70 3 -15.90 4.80 -15.90 3.90z"/>
  <path d="M1190.10 312.90 c-1.20 -0.90 -2.10 -9.90 -2.10 -19.80 0 -20.40 11.70 -58.80 28.80 -93.90 l11.10 -22.20 15.30 0 c8.40 0 20.40 0.90 26.40 1.80 l11.10 1.80 -12.90 26.10 c-22.50 44.70 -72 112.20 -77.70 106.20z"/>
  <path d="M860.40 299.10 c-28.50 -8.10 -50.40 -30.60 -50.40 -51.60 0 -25.80 39.60 -56.40 93 -71.40 43.80 -12.60 150.30 -21 188.40 -15 l15.90 2.40 -15 22.80 c-30.30 46.20 -84.60 88.80 -135.90 106.80 -26.40 9.30 -73.50 12.30 -96 6z"/>
  <path d="M1273.50 215.70 c4.20 -14.10 18 -35.70 22.50 -35.40 2.40 0.30 8.70 1.20 13.50 2.40 l9 2.10 -10.50 9.90 c-5.70 5.40 -16.20 13.80 -23.40 18.90 -12.90 9 -13.20 9 -11.10 2.10z"/>
  <path d="M1299 168 c6.90 -12.90 31.80 -36 38.70 -36 6 0 6.60 1.20 4.80 8.40 -0.90 4.50 -4.80 13.50 -8.40 20.10 -6.30 11.40 -7.50 12 -22.50 12.90 -15.60 0.90 -15.90 0.60 -12.60 -5.40z"/>
  <path d="M1501.80 162.60 c-2.40 -4.20 3.30 -23.70 9.90 -34.50 20.70 -33.60 73.80 -57.60 93 -42 9.30 7.50 7.20 17.70 -7.20 33.60 -15.30 17.10 -36 27 -90.60 43.80 -2.10 0.60 -4.20 0.30 -5.10 -0.90z"/>
 </g>
</svg>